<svg data-v-0dd9719b="" version="1.0" xmlns="http://www.w3.org/2000/svg" xmlns:xlink="http://www.w3.org/1999/xlink" width="100%" height="100%" viewBox="0 0 340.000000 100.000000" preserveAspectRatio="xMidYMid meet" color-interpolation-filters="sRGB" style="margin: auto;">
  <rect data-v-0dd9719b="" x="0" y="0" width="100%" height="100%" fill="#ffffff" fill-opacity="1" class="background"></rect>
  <rect data-v-0dd9719b="" x="0" y="0" width="100%" height="100%" fill="url(#watermark)" fill-opacity="1" class="watermarklayer"></rect>
  <g data-v-0dd9719b="" fill="#133359" class="pmspacesvg" transform="translate(83.37999725341797,87.99199676513672)">
    <!---->
    <g>
      <g mask="url(#0ef2a5c8-68cd-46fa-b2a4-50ace4d08975)" transform="translate(0,-65)">
        <g>
          <rect data-gra="graph-name" fill="#f58020" x="0" y="0" width="173.24000549316406" height="58.86000061035156" rx="9.81000010172526" ry="9.81000010172526"></rect>
        </g>
        <g data-gra="path-name" fill-rule="" class="tp-name" fill="#133359" transform="translate(10,10)">
          <g transform="scale(1)">
            <g>
              <path d="M0.75-38.86L0.75-32.02 5.34-32.02 16.82-13.86 16.82-6.84 11.72-6.84 11.72 0 30.33 0 30.33-6.84 25.23-6.84 25.23-13.86 36.77-32.02 41.35-32.02 41.35-38.86 24.36-38.86 24.36-32.02 28.25-32.02 21-20.07 13.86-32.02 17.75-32.02 17.75-38.86ZM51.39 0L51.39-6.67 47.85-6.67 49.53-11.6 63.39-11.6 65.08-6.67 61.6-6.67 61.6 0 77.08 0 77.08-6.67 73.25-6.67 61.83-38.86 51.16-38.86 39.67-6.67 35.9-6.67 35.9 0ZM56.49-31.9L61.48-17.23 51.45-17.23ZM73.83-38.86L73.83-25.81 80.16-25.81 80.62-32.02 88.86-32.02 88.86-6.84 85.03-6.84 85.03 0 100.92 0 100.92-6.84 97.15-6.84 97.15-32.02 105.33-32.02 105.85-25.81 112.11-25.81 112.11-38.86ZM115.71-38.86L115.71-25.81 122.03-25.81 122.5-32.02 130.73-32.02 130.73-6.84 126.9-6.84 126.9 0 142.8 0 142.8-6.84 139.03-6.84 139.03-32.02 147.2-32.02 147.73-25.81 153.99-25.81 153.99-38.86Z" transform="translate(-0.75, 38.86000061035156)"></path>
            </g> 
          </g>
        </g>
      </g>
      
    </g>
  </g>
  <mask id="0ef2a5c8-68cd-46fa-b2a4-50ace4d08975">
    <g>
      <g fill="#fff">
        <rect data-gra="graph-name" x="0" y="0" width="173.24000549316406" height="58.86000061035156" rx="9.81000010172526" ry="9.81000010172526"></rect>
      </g>
      <g data-gra="path-name" fill-rule="" class="tp-name" transform="translate(10,10)" stroke="#000" stroke-width="3" fill="#000">
        <g transform="scale(1)">
          <g>
            <path d="M0.75-38.86L0.75-32.02 5.34-32.02 16.82-13.86 16.82-6.84 11.72-6.84 11.72 0 30.33 0 30.33-6.84 25.23-6.84 25.23-13.86 36.77-32.02 41.35-32.02 41.35-38.86 24.36-38.86 24.36-32.02 28.25-32.02 21-20.07 13.86-32.02 17.75-32.02 17.75-38.86ZM51.39 0L51.39-6.67 47.85-6.67 49.53-11.6 63.39-11.6 65.08-6.67 61.6-6.67 61.6 0 77.08 0 77.08-6.67 73.25-6.67 61.83-38.86 51.16-38.86 39.67-6.67 35.9-6.67 35.9 0ZM56.49-31.9L61.48-17.23 51.45-17.23ZM73.83-38.86L73.83-25.81 80.16-25.81 80.62-32.02 88.86-32.02 88.86-6.84 85.03-6.84 85.03 0 100.92 0 100.92-6.84 97.15-6.84 97.15-32.02 105.33-32.02 105.85-25.81 112.11-25.81 112.11-38.86ZM115.71-38.86L115.71-25.81 122.03-25.81 122.5-32.02 130.73-32.02 130.73-6.84 126.9-6.84 126.9 0 142.8 0 142.8-6.84 139.03-6.84 139.03-32.02 147.2-32.02 147.73-25.81 153.99-25.81 153.99-38.86Z" transform="translate(-0.75, 38.86000061035156)"></path>
          </g> 
        </g>
      </g>
      <g data-gra="path-name" fill-rule="" class="tp-name" transform="translate(10,10)" fill="#fff">
        <g transform="scale(1)">
          <g>
            <path d="M0.75-38.86L0.75-32.02 5.34-32.02 16.82-13.86 16.82-6.84 11.72-6.84 11.72 0 30.33 0 30.33-6.84 25.23-6.84 25.23-13.86 36.77-32.02 41.35-32.02 41.35-38.86 24.36-38.86 24.36-32.02 28.25-32.02 21-20.07 13.86-32.02 17.75-32.02 17.75-38.86ZM51.39 0L51.39-6.67 47.85-6.67 49.53-11.6 63.39-11.6 65.08-6.67 61.6-6.67 61.6 0 77.08 0 77.08-6.67 73.25-6.67 61.83-38.86 51.16-38.86 39.67-6.67 35.9-6.67 35.9 0ZM56.49-31.9L61.48-17.23 51.45-17.23ZM73.83-38.86L73.83-25.81 80.16-25.81 80.62-32.02 88.86-32.02 88.86-6.84 85.03-6.84 85.03 0 100.92 0 100.92-6.84 97.15-6.84 97.15-32.02 105.33-32.02 105.85-25.81 112.11-25.81 112.11-38.86ZM115.71-38.86L115.71-25.81 122.03-25.81 122.5-32.02 130.73-32.02 130.73-6.84 126.9-6.84 126.9 0 142.8 0 142.8-6.84 139.03-6.84 139.03-32.02 147.2-32.02 147.73-25.81 153.99-25.81 153.99-38.86Z" transform="translate(-0.75, 38.86000061035156)"></path>
          </g> 
        </g>
      </g>
    </g>
  </mask>
  <defs v-gra="od"></defs>
</svg>
